<svg width="1920" height="315" viewBox="0 0 1920 315" fill="none" xmlns="http://www.w3.org/2000/svg">
<path d="M2013 84L1940.6 64.75C1868.2 45.5 1723.4 7 1578.6 19.8734C1433.8 32.2656 1289 97.2344 1144.2 90.3766C999.4 84 854.6 7.00002 709.8 0.623459C565 -6.23435 420.2 58.7344 275.4 64.75C130.6 70.7656 -14.2 20.2344 -86.6001 -5.87344L-159 -31.5V-70L-86.6001 -70C-14.2 -70 130.6 -70 275.4 -70C420.2 -70 565 -70 709.8 -70C854.6 -70 999.4 -70 1144.2 -70C1289 -70 1433.8 -70 1578.6 -70C1723.4 -70 1868.2 -70 1940.6 -70L2013 -70V84Z" fill="white"/>
</svg>
